# xmcd
#
# Track frame offsets:
#   150
#   14864
#   29260
#   46839
#   70102
#   83404
#   98963
#   119313
#   136128
#   157606
#   176171
#   191521
#   211199
#   226451
#   240510
#   258912
#   277898
#
# Disc length: 3976 seconds
#
# Revision: 0
# Processed by: cddbd v1.4PL0 Copyright (c) Steve Scherf et al.
# Submitted via: uFREEDB 1.6.0
#
DISCID=d60f8611
DTITLE=Varios Artistas - MTV Latino
DYEAR=2002
DGENRE=Alternative
TTITLE0=Suerte
TTITLE1=Mentira
TTITLE2=La Playa
TTITLE3=Te quiero comer la boca
TTITLE4=Azul
TTITLE5=Todavia
TTITLE6=Te dejo Madrid
TTITLE7=Que ironia
TTITLE8=Luz Azul
TTITLE9=Heroe
TTITLE10=Tu catorro
TTITLE11=Nada
TTITLE12=Una noche
TTITLE13=Falsas esperanzas
TTITLE14=En ti deje mi amor
TTITLE15=Si quieres
TTITLE16=Amor se paga con amor
EXTD=
EXTT0=
EXTT1=
EXTT2=
EXTT3=
EXTT4=
EXTT5=
EXTT6=
EXTT7=
EXTT8=
EXTT9=
EXTT10=
EXTT11=
EXTT12=
EXTT13=
EXTT14=
EXTT15=
EXTT16=
PLAYORDER=
